HIERARCHY
ROOT hip
{
	OFFSET 0.000000 0.000000 0.000000 
	CHANNELS 6 Xposition Yposition Zposition Xrotation Zrotation Yrotation
	JOINT abdomen
	{
		OFFSET 0.000000 3.402643 0.000000 
		CHANNELS 3 Xrotation Zrotation Yrotation
		JOINT chest
		{
			OFFSET 0.000000 8.438565 -0.680529 
			CHANNELS 3 Xrotation Zrotation Yrotation
			JOINT neck
			{
				OFFSET 0.000000 10.207942 -0.272212 
				CHANNELS 3 Xrotation Zrotation Yrotation
				JOINT head
				{
					OFFSET 0.000000 3.130431 0.000000 
					CHANNELS 3 Xrotation Zrotation Yrotation
					End Site
					{
						OFFSET 0.000000 3.130435 0.000000 
					}
				}
			}
			JOINT lCollar
			{
				OFFSET 3.470700 6.669187 -0.816635 
				CHANNELS 3 Yrotation Zrotation Xrotation
				JOINT lShldr
				{
					OFFSET 3.198488 0.000000 0.000000 
					CHANNELS 3 Zrotation Yrotation Xrotation
					JOINT lForeArm
					{
						OFFSET 10.139888 0.000000 0.000000 
						CHANNELS 3 Yrotation Zrotation Xrotation
						JOINT lHand
						{
							OFFSET 8.370511 0.000000 0.000000 
							CHANNELS 3 Zrotation Yrotation Xrotation
							End Site
							{
								OFFSET 4.083176 0.000000 0.000000 
							}
						}
					}
				}
			}
			JOINT rCollar
			{
				OFFSET -3.470700 6.669187 -0.816635 
				CHANNELS 3 Yrotation Zrotation Xrotation
				JOINT rShldr
				{
					OFFSET -3.198488 0.000000 0.000000 
					CHANNELS 3 Zrotation Yrotation Xrotation
					JOINT rForeArm
					{
						OFFSET -10.139888 0.000000 0.000000 
						CHANNELS 3 Yrotation Zrotation Xrotation
						JOINT rHand
						{
							OFFSET -8.370511 0.000000 0.000000 
							CHANNELS 3 Zrotation Yrotation Xrotation
							End Site
							{
								OFFSET -4.083176 0.000000 0.000000 
							}
						}
					}
				}
			}
		}
	}
	JOINT lThigh
	{
		OFFSET 5.308129 -1.633274 1.361059 
		CHANNELS 3 Xrotation Zrotation Yrotation
		JOINT lShin
		{
			OFFSET -2.041588 -20.007561 0.000000 
			CHANNELS 3 Xrotation Zrotation Yrotation
			JOINT lFoot
			{
				OFFSET 0.000000 -19.190928 -1.224953 
				CHANNELS 3 Xrotation Yrotation Zrotation
				End Site
				{
					OFFSET 0.000000 -2.449906 4.627600 
				}
			}
		}
	}
	JOINT rThigh
	{
		OFFSET -5.308129 -1.633274 1.361059 
		CHANNELS 3 Xrotation Zrotation Yrotation
		JOINT rShin
		{
			OFFSET 2.041588 -20.007561 0.000000 
			CHANNELS 3 Xrotation Zrotation Yrotation
			JOINT rFoot
			{
				OFFSET 0.000000 -19.190928 -1.224953 
				CHANNELS 3 Xrotation Yrotation Zrotation
				End Site
				{
					OFFSET 0.000000 -2.449906 4.627600 
				}
			}
		}
	}
}
MOTION
Frames: 11
Frame Time: 0.033333
0.086717 24.017454 0.086717 7.729309 -3.381461 -25.614664 14.323412 13.932178 -17.609879 10.986328 0.000000 -0.019531 -8.544922 -0.001505 -0.009645 16.524626 12.372809 46.607227 2.000000 -2.000000 0.000000 -38.820400 -55.433605 -23.021301 -60.422150 -0.539533 8.676480 -49.936367 -35.038551 -143.648041 -2.000000 2.000000 0.000000 126.749664 46.049397 77.124084 77.329720 0.509985 8.848770 14.625493 -60.583012 -39.931976 -145.301437 30.751793 -23.946060 120.256790 4.488951 -3.490390 6.416522 7.953186 5.583907 -31.598476 -28.552954 11.666522 127.772171 -4.958888 3.110135 -31.247248 23.568068 38.809013 
0.086717 24.022469 0.086717 7.729309 -3.381461 -25.614664 14.323412 13.932178 -17.609879 10.986328 0.000000 -0.019531 -8.544922 -0.001505 -0.009645 16.524626 12.372809 46.607227 2.000000 -2.000000 0.000000 -38.820400 -55.433605 -23.021301 -60.422150 -0.539533 8.676480 -49.936367 -35.038551 -143.648041 -2.000000 2.000000 0.000000 126.749664 46.049397 77.124084 77.329720 0.509985 8.848770 14.625493 -60.583012 -39.931976 -145.301437 30.751785 -23.946056 120.256790 4.488953 -3.490387 6.416522 7.953186 5.583907 -31.597595 -28.552460 11.656737 127.772430 -4.968667 3.100513 -31.245663 23.570103 38.809994 
0.086717 24.027466 0.086717 7.729309 -3.381461 -25.614664 14.323412 13.932178 -17.609879 10.986328 0.000000 -0.019531 -8.544922 -0.001505 -0.009645 16.524626 12.372809 46.607227 2.000000 -2.000000 0.000000 -38.831936 -55.427933 -23.008753 -60.422150 -0.539533 8.676480 -49.927090 -35.045456 -143.644409 -2.000000 2.000000 0.000000 126.733192 46.048126 77.108559 77.329720 0.509985 8.848770 14.609379 -60.572632 -39.925312 -145.285629 30.750696 -23.899559 120.256790 4.497346 -3.485771 6.411928 7.956013 5.585929 -31.598473 -28.552954 11.666523 127.772171 -4.958889 3.110136 -31.247248 23.568068 38.809013 
0.086717 24.019953 0.086717 7.729309 -3.381461 -25.614664 14.323412 13.932178 -17.609879 10.986328 0.000000 -0.019531 -8.544922 -0.001505 -0.009645 16.524626 12.372809 46.607227 2.000000 -2.000000 0.000000 -38.974445 -55.369785 -22.854168 -60.422150 -0.539533 8.676480 -49.916039 -35.071259 -143.539703 -2.000000 2.000000 0.000000 126.574608 46.000488 77.024734 77.329720 0.509985 8.848770 14.490613 -60.473736 -39.843708 -145.264008 30.732534 -23.911901 120.256180 4.499108 -3.501326 6.427192 7.964079 5.566203 -31.598473 -28.552954 11.666524 127.772171 -4.958888 3.110135 -31.247252 23.568066 38.809013 
0.086717 24.012440 0.086717 7.729309 -3.381461 -25.614664 14.323412 13.932178 -17.609879 10.986328 0.000000 -0.019531 -8.544922 -0.001505 -0.009645 16.524626 12.372809 46.607227 2.000000 -2.000000 0.000000 -39.087456 -55.318504 -22.725195 -60.410053 -0.539126 8.679802 -49.912708 -35.117542 -143.451675 -2.000000 2.000000 0.000000 126.432556 45.954090 76.949440 77.329720 0.509985 8.848770 14.365417 -60.371967 -39.761909 -145.264786 30.730957 -23.910536 120.256790 4.497346 -3.485773 6.429410 7.958152 5.544009 -31.598476 -28.552952 11.666523 127.772171 -4.958889 3.110136 -31.247252 23.568066 38.809013 
0.086717 23.987398 0.086717 7.729309 -3.381461 -25.614664 14.323412 13.932178 -17.609879 10.986328 0.000000 -0.019531 -8.544922 -0.001505 -0.009645 16.524626 12.372809 46.607227 2.000000 -2.000000 0.000000 -39.127060 -55.291298 -22.675495 -60.381161 -0.537157 8.677753 -49.906380 -35.123817 -143.423035 -2.000000 2.000000 0.000000 126.392662 45.932171 76.927322 77.329720 0.509985 8.848770 14.318951 -60.331455 -39.727684 -145.383713 30.672678 -23.970518 120.315765 4.487662 -3.482723 6.475734 7.970393 5.553729 -31.594433 -28.560509 11.689096 127.811707 -4.976367 3.093712 -31.318176 23.577972 38.841557 
0.086717 23.957346 0.086717 7.729309 -3.381461 -25.614664 14.323412 13.932178 -17.609879 10.986328 0.000000 -0.019531 -8.544922 -0.001505 -0.009645 16.524626 12.372809 46.607227 2.000000 -2.000000 0.000000 -39.178947 -55.272812 -22.616852 -60.381161 -0.537157 8.677753 -49.900032 -35.130089 -143.394394 -2.000000 2.000000 0.000000 126.334923 45.918629 76.888748 77.329720 0.509985 8.848770 14.280285 -60.307823 -39.688641 -145.487015 30.632917 -24.003439 120.355034 4.499555 -3.471781 6.517548 7.999682 5.559759 -31.566376 -28.570921 11.754822 127.849762 -4.958712 3.126965 -31.397987 23.572567 38.883301 
0.086717 23.927290 0.086717 7.729309 -3.381461 -25.614664 14.323412 13.932178 -17.609879 10.986328 0.000000 -0.019531 -8.544922 -0.001505 -0.009645 16.524626 12.372809 46.607227 2.000000 -2.000000 0.000000 -39.221313 -55.261372 -22.583748 -60.381161 -0.537157 8.677753 -49.903946 -35.147266 -143.355774 -2.000000 2.000000 0.000000 126.293655 45.906372 76.865700 77.329720 0.509985 8.848770 14.249907 -60.277691 -39.669575 -145.610291 30.585171 -24.064203 120.423431 4.498732 -3.473009 6.592318 7.976257 5.576057 -31.546473 -28.580488 11.773255 127.888916 -4.958732 3.125815 -31.496113 23.575222 38.934692 
0.086717 23.887224 0.086717 7.729309 -3.381461 -25.614664 14.323412 13.932178 -17.609879 10.986328 0.000000 -0.019531 -8.544922 -0.001505 -0.009645 16.524626 12.372809 46.607227 2.000000 -2.000000 0.000000 -39.252914 -55.235451 -22.555096 -60.381161 -0.537157 8.677753 -49.889774 -35.146500 -143.340256 -2.000000 2.000000 0.000000 126.245705 45.892811 76.827148 77.329720 0.509985 8.848770 14.217855 -60.256897 -39.639301 -145.724228 30.545532 -24.089237 120.481750 4.507094 -3.477367 6.650249 7.980787 5.583915 -31.514824 -28.588961 11.799894 127.928337 -4.968546 3.114950 -31.584665 23.602148 38.998310 
0.086717 23.867195 0.086717 7.729309 -3.381461 -25.614664 14.323412 13.932178 -17.609879 10.986328 0.000000 -0.019531 -8.544922 -0.001505 -0.009645 16.524626 12.372809 46.607227 2.000000 -2.000000 0.000000 -39.270496 -55.234104 -22.534069 -60.381161 -0.537157 8.677753 -49.898083 -35.162453 -143.323151 -2.000000 2.000000 0.000000 126.228973 45.873474 76.829041 77.329720 0.509985 8.848770 14.196968 -60.234310 -39.618145 -145.859421 30.478619 -24.130249 120.550247 4.499249 -3.480332 6.702958 7.985261 5.600320 -31.493374 -28.603125 11.835400 127.967979 -4.976254 3.098758 -31.685537 23.603056 39.047192 
0.086717 23.827127 0.086717 7.729309 -3.381461 -25.614664 14.323412 13.932178 -17.609879 10.986328 0.000000 -0.019531 -8.544922 -0.001505 -0.009645 16.524626 12.372809 46.607227 2.000000 -2.000000 0.000000 -39.295914 -55.231400 -22.500046 -60.381161 -0.537157 8.677753 -49.893673 -35.163681 -143.301651 -2.000000 2.000000 0.000000 126.212524 45.872173 76.820541 77.329720 0.509985 8.848770 14.171488 -60.216373 -39.613586 -145.986893 30.439611 -24.176550 120.608337 4.518835 -3.484639 6.749218 8.000218 5.600654 -31.451731 -28.611418 11.889766 127.997215 -4.968609 3.103536 -31.779617 23.623718 39.110905 
